<svg xmlns="http://www.w3.org/2000/svg" xmlns:xlink="http://www.w3.org/1999/xlink" width="500" zoomAndPan="magnify" viewBox="0 0 375 374.999991" height="500" preserveAspectRatio="xMidYMid meet" version="1.0"><defs><g/><clipPath id="id1"><path d="M 167 6.179688 L 211 6.179688 L 211 49 L 167 49 Z M 167 6.179688 " clip-rule="nonzero"/></clipPath><clipPath id="id2"><path d="M 234.628906 45 L 277.304688 45 L 277.304688 87.664062 L 234.628906 87.664062 Z M 234.628906 45 " clip-rule="nonzero"/></clipPath><clipPath id="id3"><path d="M 234.628906 122.539062 L 277.304688 122.539062 L 277.304688 165.402344 L 234.628906 165.402344 Z M 234.628906 122.539062 " clip-rule="nonzero"/></clipPath><clipPath id="id4"><path d="M 167.339844 161.40625 L 210.160156 161.40625 L 210.160156 204.167969 L 167.339844 204.167969 Z M 167.339844 161.40625 " clip-rule="nonzero"/></clipPath></defs><path fill="#aa3dba" d="M 188.8125 39.039062 C 189.179688 39.039062 189.476562 38.742188 189.476562 38.375 L 189.476562 34.644531 C 189.476562 34.277344 189.179688 33.980469 188.8125 33.980469 C 188.445312 33.980469 188.148438 34.277344 188.148438 34.644531 L 188.148438 38.375 C 188.148438 38.742188 188.445312 39.039062 188.8125 39.039062 Z M 188.8125 48.355469 C 189.179688 48.355469 189.476562 48.058594 189.476562 47.691406 L 189.476562 43.964844 C 189.476562 43.597656 189.179688 43.296875 188.8125 43.296875 C 188.445312 43.296875 188.148438 43.597656 188.148438 43.964844 L 188.148438 47.691406 C 188.148438 48.058594 188.445312 48.355469 188.8125 48.355469 Z M 188.8125 57.675781 C 189.179688 57.675781 189.476562 57.375 189.476562 57.007812 L 189.476562 53.28125 C 189.476562 52.914062 189.179688 52.617188 188.8125 52.617188 C 188.445312 52.617188 188.148438 52.914062 188.148438 53.28125 L 188.148438 57.007812 C 188.148438 57.375 188.445312 57.675781 188.8125 57.675781 Z M 188.8125 29.722656 C 189.179688 29.722656 189.476562 29.421875 189.476562 29.054688 L 189.476562 27.46875 C 189.476562 27.101562 189.179688 26.804688 188.8125 26.804688 C 188.445312 26.804688 188.148438 27.101562 188.148438 27.46875 L 188.148438 29.054688 C 188.148438 29.421875 188.445312 29.722656 188.8125 29.722656 Z M 242.109375 135.21875 L 238.886719 133.355469 C 238.566406 133.171875 238.160156 133.277344 237.976562 133.597656 C 237.792969 133.914062 237.902344 134.324219 238.21875 134.507812 L 241.445312 136.371094 C 241.550781 136.429688 241.664062 136.460938 241.777344 136.460938 C 242.007812 136.460938 242.230469 136.339844 242.351562 136.125 C 242.535156 135.808594 242.429688 135.402344 242.109375 135.21875 Z M 234.046875 130.558594 L 230.824219 128.695312 C 230.507812 128.511719 230.097656 128.621094 229.914062 128.9375 C 229.734375 129.257812 229.839844 129.664062 230.160156 129.847656 L 233.382812 131.710938 C 233.488281 131.773438 233.601562 131.800781 233.714844 131.800781 C 233.945312 131.800781 234.167969 131.683594 234.292969 131.46875 C 234.476562 131.148438 234.367188 130.742188 234.046875 130.558594 Z M 225.988281 125.898438 L 223.339844 124.367188 C 223.519531 124.050781 223.410156 123.644531 223.09375 123.460938 C 222.777344 123.277344 222.371094 123.386719 222.1875 123.703125 L 221.855469 124.277344 C 221.855469 124.277344 221.855469 124.28125 221.855469 124.28125 C 221.855469 124.28125 221.855469 124.28125 221.851562 124.28125 L 220.324219 126.933594 C 220.140625 127.25 220.25 127.65625 220.566406 127.839844 C 220.671875 127.902344 220.785156 127.929688 220.898438 127.929688 C 221.128906 127.929688 221.355469 127.8125 221.476562 127.597656 L 222.671875 125.519531 L 225.324219 127.050781 C 225.425781 127.113281 225.539062 127.140625 225.652344 127.140625 C 225.882812 127.140625 226.109375 127.023438 226.230469 126.808594 C 226.414062 126.488281 226.304688 126.082031 225.988281 125.898438 Z M 250.171875 139.875 L 246.945312 138.011719 C 246.628906 137.828125 246.222656 137.9375 246.039062 138.257812 C 245.855469 138.574219 245.964844 138.980469 246.28125 139.164062 L 249.507812 141.027344 C 249.613281 141.089844 249.726562 141.117188 249.839844 141.117188 C 250.066406 141.117188 250.292969 141 250.414062 140.785156 C 250.597656 140.46875 250.488281 140.058594 250.171875 139.875 Z M 256.378906 143.464844 L 255.007812 142.671875 C 254.691406 142.488281 254.285156 142.597656 254.101562 142.914062 C 253.914062 143.234375 254.027344 143.640625 254.34375 143.824219 L 255.714844 144.617188 C 255.820312 144.679688 255.933594 144.707031 256.046875 144.707031 C 256.277344 144.707031 256.5 144.585938 256.625 144.375 C 256.808594 144.054688 256.699219 143.648438 256.378906 143.464844 Z M 124.472656 141.601562 L 121.246094 143.464844 C 120.929688 143.648438 120.820312 144.054688 121.003906 144.375 C 121.125 144.585938 121.347656 144.707031 121.578125 144.707031 C 121.691406 144.707031 121.808594 144.679688 121.910156 144.617188 L 125.136719 142.753906 C 125.453125 142.570312 125.5625 142.164062 125.378906 141.84375 C 125.195312 141.527344 124.789062 141.417969 124.472656 141.601562 Z M 148.65625 127.625 L 145.429688 129.488281 C 145.113281 129.671875 145.003906 130.078125 145.1875 130.398438 C 145.3125 130.609375 145.535156 130.730469 145.761719 130.730469 C 145.875 130.730469 145.992188 130.699219 146.097656 130.640625 L 149.320312 128.777344 C 149.640625 128.59375 149.746094 128.1875 149.5625 127.867188 C 149.378906 127.550781 148.972656 127.441406 148.65625 127.625 Z M 140.59375 132.28125 L 137.371094 134.144531 C 137.050781 134.332031 136.941406 134.738281 137.125 135.054688 C 137.25 135.269531 137.472656 135.390625 137.703125 135.390625 C 137.816406 135.390625 137.929688 135.359375 138.035156 135.300781 L 141.257812 133.4375 C 141.578125 133.253906 141.6875 132.84375 141.503906 132.527344 C 141.316406 132.207031 140.910156 132.097656 140.59375 132.28125 Z M 132.53125 136.941406 L 129.308594 138.804688 C 128.988281 138.988281 128.882812 139.394531 129.0625 139.714844 C 129.1875 139.929688 129.410156 140.046875 129.640625 140.046875 C 129.753906 140.046875 129.867188 140.019531 129.972656 139.957031 L 133.195312 138.09375 C 133.515625 137.910156 133.625 137.503906 133.441406 137.1875 C 133.257812 136.867188 132.851562 136.757812 132.53125 136.941406 Z M 204.25 123.945312 L 200.527344 123.945312 C 200.160156 123.945312 199.859375 124.246094 199.859375 124.613281 C 199.859375 124.980469 200.160156 125.277344 200.527344 125.277344 L 204.25 125.277344 C 204.617188 125.277344 204.914062 124.980469 204.914062 124.613281 C 204.914062 124.246094 204.617188 123.945312 204.25 123.945312 Z M 194.941406 123.945312 L 191.21875 123.945312 C 190.851562 123.945312 190.550781 124.246094 190.550781 124.613281 C 190.550781 124.980469 190.851562 125.277344 191.21875 125.277344 L 194.941406 125.277344 C 195.308594 125.277344 195.605469 124.980469 195.605469 124.613281 C 195.605469 124.246094 195.308594 123.945312 194.941406 123.945312 Z M 171.933594 124.613281 C 171.933594 124.980469 172.234375 125.277344 172.601562 125.277344 L 176.324219 125.277344 C 176.691406 125.277344 176.988281 124.980469 176.988281 124.613281 C 176.988281 124.246094 176.691406 123.945312 176.324219 123.945312 L 172.601562 123.945312 C 172.234375 123.945312 171.933594 124.246094 171.933594 124.613281 Z M 162.628906 124.613281 C 162.628906 124.980469 162.925781 125.277344 163.292969 125.277344 L 167.015625 125.277344 C 167.382812 125.277344 167.679688 124.980469 167.679688 124.613281 C 167.679688 124.246094 167.382812 123.945312 167.015625 123.945312 L 163.292969 123.945312 C 162.925781 123.945312 162.628906 124.246094 162.628906 124.613281 Z M 185.632812 123.945312 L 181.910156 123.945312 C 181.542969 123.945312 181.242188 124.246094 181.242188 124.613281 C 181.242188 124.980469 181.542969 125.277344 181.910156 125.277344 L 185.632812 125.277344 C 186 125.277344 186.296875 124.980469 186.296875 124.613281 C 186.296875 124.246094 186 123.945312 185.632812 123.945312 Z M 213.558594 123.945312 L 209.835938 123.945312 C 209.46875 123.945312 209.167969 124.246094 209.167969 124.613281 C 209.167969 124.980469 209.46875 125.277344 209.835938 125.277344 L 213.558594 125.277344 C 213.925781 125.277344 214.222656 124.980469 214.222656 124.613281 C 214.222656 124.246094 213.925781 123.945312 213.558594 123.945312 Z M 193.824219 73.683594 C 193.640625 73.367188 193.234375 73.257812 192.917969 73.441406 C 192.597656 73.625 192.488281 74.03125 192.671875 74.351562 L 194.535156 77.578125 C 194.660156 77.792969 194.882812 77.910156 195.109375 77.910156 C 195.222656 77.910156 195.339844 77.882812 195.441406 77.820312 C 195.761719 77.636719 195.871094 77.230469 195.6875 76.914062 Z M 197.570312 81.511719 C 197.253906 81.695312 197.144531 82.101562 197.328125 82.421875 L 199.1875 85.648438 C 199.3125 85.863281 199.535156 85.980469 199.765625 85.980469 C 199.878906 85.980469 199.992188 85.953125 200.097656 85.890625 C 200.414062 85.707031 200.523438 85.300781 200.339844 84.984375 L 198.480469 81.753906 C 198.296875 81.4375 197.886719 81.328125 197.570312 81.511719 Z M 206.878906 97.652344 C 206.5625 97.832031 206.453125 98.242188 206.636719 98.558594 L 208.496094 101.789062 C 208.621094 102 208.84375 102.121094 209.074219 102.121094 C 209.1875 102.121094 209.300781 102.089844 209.40625 102.03125 C 209.722656 101.847656 209.832031 101.441406 209.648438 101.121094 L 207.785156 97.894531 C 207.605469 97.574219 207.195312 97.464844 206.878906 97.652344 Z M 203.132812 89.824219 C 202.949219 89.503906 202.542969 89.398438 202.222656 89.582031 C 201.90625 89.765625 201.796875 90.171875 201.980469 90.488281 L 203.84375 93.71875 C 203.964844 93.929688 204.191406 94.050781 204.417969 94.050781 C 204.53125 94.050781 204.648438 94.023438 204.75 93.960938 C 205.070312 93.777344 205.179688 93.371094 204.996094 93.050781 Z M 212.441406 105.960938 C 212.257812 105.644531 211.851562 105.535156 211.53125 105.71875 C 211.214844 105.902344 211.105469 106.3125 211.289062 106.628906 L 213.152344 109.855469 C 213.273438 110.070312 213.5 110.1875 213.726562 110.1875 C 213.839844 110.1875 213.957031 110.160156 214.058594 110.101562 C 214.378906 109.917969 214.488281 109.507812 214.304688 109.191406 Z M 217.09375 114.03125 C 216.914062 113.714844 216.503906 113.605469 216.1875 113.789062 C 215.871094 113.972656 215.761719 114.378906 215.945312 114.699219 L 217.804688 117.925781 C 217.929688 118.140625 218.152344 118.257812 218.382812 118.257812 C 218.496094 118.257812 218.609375 118.230469 218.714844 118.167969 C 219.03125 117.988281 219.140625 117.578125 218.957031 117.261719 Z M 182.570312 77.148438 C 182.675781 77.210938 182.789062 77.238281 182.902344 77.238281 C 183.132812 77.238281 183.355469 77.121094 183.480469 76.90625 L 185.339844 73.679688 C 185.523438 73.359375 185.414062 72.953125 185.097656 72.769531 C 184.78125 72.585938 184.371094 72.695312 184.1875 73.011719 L 182.328125 76.242188 C 182.144531 76.558594 182.253906 76.964844 182.570312 77.148438 Z M 161.824219 113.117188 C 161.507812 112.933594 161.101562 113.042969 160.917969 113.359375 L 159.054688 116.589844 C 158.871094 116.90625 158.980469 117.3125 159.300781 117.496094 C 159.40625 117.558594 159.519531 117.585938 159.628906 117.585938 C 159.863281 117.585938 160.085938 117.46875 160.207031 117.253906 L 162.070312 114.027344 C 162.253906 113.707031 162.144531 113.300781 161.824219 113.117188 Z M 173.261719 93.289062 C 173.367188 93.347656 173.480469 93.378906 173.59375 93.378906 C 173.824219 93.378906 174.046875 93.257812 174.171875 93.046875 L 176.03125 89.816406 C 176.214844 89.5 176.105469 89.09375 175.789062 88.910156 C 175.472656 88.722656 175.0625 88.832031 174.878906 89.152344 L 173.019531 92.378906 C 172.835938 92.699219 172.945312 93.105469 173.261719 93.289062 Z M 180.441406 80.839844 C 180.125 80.65625 179.71875 80.765625 179.535156 81.082031 L 177.671875 84.308594 C 177.488281 84.628906 177.597656 85.035156 177.917969 85.21875 C 178.019531 85.28125 178.136719 85.308594 178.246094 85.308594 C 178.476562 85.308594 178.703125 85.191406 178.824219 84.976562 L 180.6875 81.746094 C 180.871094 81.429688 180.761719 81.023438 180.441406 80.839844 Z M 171.132812 96.976562 C 170.816406 96.792969 170.410156 96.902344 170.226562 97.222656 L 168.363281 100.449219 C 168.179688 100.769531 168.289062 101.175781 168.609375 101.359375 C 168.710938 101.417969 168.828125 101.449219 168.9375 101.449219 C 169.171875 101.449219 169.394531 101.328125 169.515625 101.117188 L 171.378906 97.886719 C 171.5625 97.570312 171.453125 97.160156 171.132812 96.976562 Z M 163.953125 109.429688 C 164.058594 109.488281 164.171875 109.515625 164.285156 109.515625 C 164.515625 109.515625 164.738281 109.398438 164.863281 109.183594 L 166.722656 105.957031 C 166.90625 105.636719 166.796875 105.230469 166.480469 105.046875 C 166.160156 104.863281 165.753906 104.972656 165.574219 105.289062 L 163.710938 108.519531 C 163.527344 108.835938 163.636719 109.246094 163.953125 109.429688 Z M 192.535156 66.328125 C 192.535156 65.960938 192.238281 65.660156 191.871094 65.660156 L 189.476562 65.660156 L 189.476562 62.601562 C 189.476562 62.230469 189.179688 61.933594 188.8125 61.933594 C 188.445312 61.933594 188.148438 62.230469 188.148438 62.601562 L 188.148438 65.660156 C 187.78125 65.660156 187.484375 65.960938 187.484375 66.328125 C 187.484375 66.695312 187.78125 66.992188 188.148438 66.992188 L 191.871094 66.992188 C 192.238281 66.992188 192.535156 66.695312 192.535156 66.328125 Z M 229.769531 66.328125 C 229.769531 65.960938 229.472656 65.660156 229.105469 65.660156 L 225.382812 65.660156 C 225.015625 65.660156 224.71875 65.960938 224.71875 66.328125 C 224.71875 66.695312 225.015625 66.992188 225.382812 66.992188 L 229.105469 66.992188 C 229.472656 66.992188 229.769531 66.695312 229.769531 66.328125 Z M 206.765625 66.992188 L 210.488281 66.992188 C 210.855469 66.992188 211.152344 66.695312 211.152344 66.328125 C 211.152344 65.960938 210.855469 65.660156 210.488281 65.660156 L 206.765625 65.660156 C 206.398438 65.660156 206.101562 65.960938 206.101562 66.328125 C 206.101562 66.695312 206.398438 66.992188 206.765625 66.992188 Z M 244 66.992188 L 247.722656 66.992188 C 248.089844 66.992188 248.386719 66.695312 248.386719 66.328125 C 248.386719 65.960938 248.089844 65.660156 247.722656 65.660156 L 244 65.660156 C 243.632812 65.660156 243.335938 65.960938 243.335938 66.328125 C 243.335938 66.695312 243.632812 66.992188 244 66.992188 Z M 197.457031 66.992188 L 201.179688 66.992188 C 201.546875 66.992188 201.84375 66.695312 201.84375 66.328125 C 201.84375 65.960938 201.546875 65.660156 201.179688 65.660156 L 197.457031 65.660156 C 197.089844 65.660156 196.792969 65.960938 196.792969 66.328125 C 196.792969 66.695312 197.089844 66.992188 197.457031 66.992188 Z M 220.460938 66.328125 C 220.460938 65.960938 220.164062 65.660156 219.796875 65.660156 L 216.074219 65.660156 C 215.707031 65.660156 215.410156 65.960938 215.410156 66.328125 C 215.410156 66.695312 215.707031 66.992188 216.074219 66.992188 L 219.796875 66.992188 C 220.164062 66.992188 220.460938 66.695312 220.460938 66.328125 Z M 234.691406 66.992188 L 238.414062 66.992188 C 238.78125 66.992188 239.078125 66.695312 239.078125 66.328125 C 239.078125 65.960938 238.78125 65.660156 238.414062 65.660156 L 234.691406 65.660156 C 234.324219 65.660156 234.027344 65.960938 234.027344 66.328125 C 234.027344 66.695312 234.324219 66.992188 234.691406 66.992188 Z M 160.222656 66.992188 L 163.945312 66.992188 C 164.3125 66.992188 164.609375 66.695312 164.609375 66.328125 C 164.609375 65.960938 164.3125 65.660156 163.945312 65.660156 L 160.222656 65.660156 C 159.855469 65.660156 159.558594 65.960938 159.558594 66.328125 C 159.558594 66.695312 159.855469 66.992188 160.222656 66.992188 Z M 169.53125 66.992188 L 173.253906 66.992188 C 173.621094 66.992188 173.917969 66.695312 173.917969 66.328125 C 173.917969 65.960938 173.621094 65.660156 173.253906 65.660156 L 169.53125 65.660156 C 169.164062 65.660156 168.867188 65.960938 168.867188 66.328125 C 168.867188 66.695312 169.164062 66.992188 169.53125 66.992188 Z M 132.296875 66.992188 L 136.019531 66.992188 C 136.386719 66.992188 136.6875 66.695312 136.6875 66.328125 C 136.6875 65.960938 136.386719 65.660156 136.019531 65.660156 L 132.296875 65.660156 C 131.929688 65.660156 131.632812 65.960938 131.632812 66.328125 C 131.632812 66.695312 131.929688 66.992188 132.296875 66.992188 Z M 141.605469 66.992188 L 145.328125 66.992188 C 145.695312 66.992188 145.996094 66.695312 145.996094 66.328125 C 145.996094 65.960938 145.695312 65.660156 145.328125 65.660156 L 141.605469 65.660156 C 141.238281 65.660156 140.941406 65.960938 140.941406 66.328125 C 140.941406 66.695312 141.238281 66.992188 141.605469 66.992188 Z M 150.914062 66.992188 L 154.636719 66.992188 C 155.003906 66.992188 155.304688 66.695312 155.304688 66.328125 C 155.304688 65.960938 155.003906 65.660156 154.636719 65.660156 L 150.914062 65.660156 C 150.546875 65.660156 150.25 65.960938 150.25 66.328125 C 150.25 66.695312 150.546875 66.992188 150.914062 66.992188 Z M 178.839844 66.992188 L 182.5625 66.992188 C 182.929688 66.992188 183.226562 66.695312 183.226562 66.328125 C 183.226562 65.960938 182.929688 65.660156 182.5625 65.660156 L 178.839844 65.660156 C 178.472656 65.660156 178.175781 65.960938 178.175781 66.328125 C 178.175781 66.695312 178.472656 66.992188 178.839844 66.992188 Z M 218.441406 131.53125 C 218.121094 131.347656 217.714844 131.453125 217.53125 131.773438 L 215.671875 135 C 215.488281 135.320312 215.597656 135.726562 215.914062 135.910156 C 216.019531 135.96875 216.132812 136 216.246094 136 C 216.476562 136 216.699219 135.878906 216.820312 135.667969 L 218.683594 132.4375 C 218.867188 132.121094 218.757812 131.714844 218.441406 131.53125 Z M 251.019531 75.042969 C 250.703125 74.859375 250.296875 74.96875 250.113281 75.285156 L 248.25 78.515625 C 248.066406 78.832031 248.175781 79.238281 248.492188 79.421875 C 248.597656 79.484375 248.710938 79.511719 248.824219 79.511719 C 249.054688 79.511719 249.277344 79.394531 249.402344 79.179688 L 251.261719 75.953125 C 251.449219 75.632812 251.339844 75.226562 251.019531 75.042969 Z M 239.183594 95.5625 C 239.289062 95.625 239.402344 95.652344 239.515625 95.652344 C 239.746094 95.652344 239.972656 95.53125 240.09375 95.320312 L 241.953125 92.089844 C 242.140625 91.773438 242.03125 91.367188 241.710938 91.183594 C 241.394531 90.996094 240.988281 91.105469 240.804688 91.425781 L 238.941406 94.652344 C 238.757812 94.972656 238.867188 95.378906 239.183594 95.5625 Z M 227.75 115.390625 C 227.429688 115.207031 227.023438 115.316406 226.839844 115.632812 L 224.980469 118.863281 C 224.796875 119.179688 224.90625 119.585938 225.222656 119.769531 C 225.328125 119.832031 225.441406 119.859375 225.554688 119.859375 C 225.785156 119.859375 226.007812 119.742188 226.128906 119.527344 L 227.992188 116.300781 C 228.175781 115.980469 228.066406 115.574219 227.75 115.390625 Z M 237.058594 99.25 C 236.738281 99.066406 236.332031 99.175781 236.148438 99.496094 L 234.289062 102.722656 C 234.105469 103.042969 234.214844 103.449219 234.53125 103.632812 C 234.636719 103.691406 234.75 103.722656 234.863281 103.722656 C 235.09375 103.722656 235.316406 103.601562 235.4375 103.390625 L 237.300781 100.160156 C 237.484375 99.84375 237.375 99.433594 237.058594 99.25 Z M 213.785156 139.601562 C 213.46875 139.414062 213.0625 139.523438 212.878906 139.84375 L 211.015625 143.070312 C 210.832031 143.390625 210.941406 143.796875 211.261719 143.980469 C 211.363281 144.039062 211.476562 144.070312 211.589844 144.070312 C 211.820312 144.070312 212.046875 143.949219 212.167969 143.738281 L 214.03125 140.507812 C 214.214844 140.191406 214.105469 139.78125 213.785156 139.601562 Z M 246.367188 83.113281 C 246.046875 82.929688 245.640625 83.039062 245.457031 83.355469 L 243.597656 86.582031 C 243.414062 86.902344 243.523438 87.308594 243.839844 87.492188 C 243.945312 87.554688 244.058594 87.582031 244.171875 87.582031 C 244.402344 87.582031 244.625 87.464844 244.746094 87.25 L 246.609375 84.023438 C 246.792969 83.703125 246.683594 83.296875 246.367188 83.113281 Z M 230.207031 111.789062 C 230.4375 111.789062 230.664062 111.671875 230.785156 111.457031 L 232.648438 108.230469 C 232.832031 107.914062 232.722656 107.503906 232.402344 107.320312 C 232.085938 107.136719 231.679688 107.246094 231.496094 107.566406 L 229.632812 110.792969 C 229.449219 111.109375 229.558594 111.519531 229.875 111.703125 C 229.980469 111.761719 230.09375 111.789062 230.207031 111.789062 Z M 199.824219 163.808594 C 199.503906 163.625 199.097656 163.734375 198.914062 164.050781 L 197.054688 167.28125 C 196.871094 167.597656 196.980469 168.003906 197.296875 168.1875 C 197.402344 168.25 197.515625 168.277344 197.628906 168.277344 C 197.859375 168.277344 198.082031 168.160156 198.203125 167.945312 L 200.066406 164.71875 C 200.25 164.398438 200.140625 163.992188 199.824219 163.808594 Z M 209.132812 147.667969 C 208.8125 147.484375 208.40625 147.59375 208.222656 147.914062 L 206.363281 151.140625 C 206.179688 151.457031 206.289062 151.867188 206.605469 152.050781 C 206.710938 152.109375 206.824219 152.136719 206.9375 152.136719 C 207.167969 152.136719 207.390625 152.019531 207.511719 151.804688 L 209.375 148.578125 C 209.558594 148.257812 209.449219 147.851562 209.132812 147.667969 Z M 195.167969 171.878906 C 194.851562 171.695312 194.445312 171.804688 194.261719 172.121094 L 192.398438 175.347656 C 192.214844 175.667969 192.324219 176.074219 192.644531 176.257812 C 192.746094 176.320312 192.859375 176.347656 192.972656 176.347656 C 193.203125 176.347656 193.429688 176.226562 193.550781 176.015625 L 195.414062 172.785156 C 195.597656 172.46875 195.488281 172.0625 195.167969 171.878906 Z M 204.476562 155.738281 C 204.160156 155.554688 203.753906 155.664062 203.570312 155.980469 L 201.707031 159.210938 C 201.523438 159.527344 201.632812 159.933594 201.953125 160.117188 C 202.054688 160.179688 202.167969 160.207031 202.28125 160.207031 C 202.511719 160.207031 202.738281 160.089844 202.859375 159.875 L 204.722656 156.648438 C 204.90625 156.328125 204.796875 155.921875 204.476562 155.738281 Z M 163.550781 137.765625 C 163.367188 137.449219 162.960938 137.339844 162.644531 137.523438 C 162.324219 137.707031 162.214844 138.113281 162.398438 138.433594 L 164.261719 141.660156 C 164.382812 141.875 164.605469 141.992188 164.835938 141.992188 C 164.949219 141.992188 165.0625 141.964844 165.167969 141.902344 C 165.488281 141.71875 165.597656 141.3125 165.414062 140.996094 Z M 168.203125 145.835938 C 168.023438 145.519531 167.613281 145.40625 167.296875 145.59375 C 166.980469 145.777344 166.871094 146.183594 167.054688 146.5 L 168.914062 149.730469 C 169.039062 149.941406 169.261719 150.0625 169.492188 150.0625 C 169.605469 150.0625 169.71875 150.035156 169.824219 149.972656 C 170.140625 149.789062 170.25 149.382812 170.066406 149.0625 Z M 177.511719 161.976562 C 177.332031 161.65625 176.921875 161.546875 176.605469 161.730469 C 176.289062 161.914062 176.179688 162.324219 176.363281 162.640625 L 178.222656 165.867188 C 178.347656 166.082031 178.570312 166.203125 178.800781 166.203125 C 178.914062 166.203125 179.027344 166.171875 179.132812 166.113281 C 179.449219 165.929688 179.558594 165.523438 179.375 165.203125 Z M 158.894531 129.699219 C 158.710938 129.378906 158.304688 129.269531 157.988281 129.453125 C 157.671875 129.636719 157.5625 130.042969 157.746094 130.363281 L 159.605469 133.589844 C 159.730469 133.804688 159.953125 133.921875 160.183594 133.921875 C 160.296875 133.921875 160.410156 133.894531 160.515625 133.835938 C 160.832031 133.648438 160.941406 133.242188 160.757812 132.925781 Z M 137.488281 92.578125 L 135.625 89.347656 C 135.441406 89.03125 135.035156 88.921875 134.71875 89.105469 C 134.398438 89.289062 134.289062 89.695312 134.472656 90.015625 L 136.335938 93.242188 C 136.457031 93.457031 136.679688 93.574219 136.914062 93.574219 C 137.023438 93.574219 137.140625 93.546875 137.242188 93.488281 C 137.5625 93.300781 137.671875 92.894531 137.488281 92.578125 Z M 172.859375 153.90625 C 172.675781 153.589844 172.269531 153.476562 171.949219 153.660156 C 171.632812 153.847656 171.523438 154.253906 171.707031 154.570312 L 173.570312 157.800781 C 173.691406 158.011719 173.914062 158.132812 174.144531 158.132812 C 174.257812 158.132812 174.371094 158.105469 174.476562 158.042969 C 174.796875 157.859375 174.90625 157.453125 174.722656 157.132812 Z M 149.585938 113.558594 C 149.402344 113.238281 148.996094 113.128906 148.679688 113.3125 C 148.363281 113.5 148.253906 113.90625 148.4375 114.222656 L 150.296875 117.449219 C 150.421875 117.664062 150.644531 117.785156 150.875 117.785156 C 150.988281 117.785156 151.101562 117.753906 151.207031 117.695312 C 151.523438 117.511719 151.632812 117.105469 151.449219 116.785156 Z M 131.679688 85.171875 C 131.804688 85.386719 132.027344 85.507812 132.257812 85.507812 C 132.371094 85.507812 132.484375 85.476562 132.589844 85.417969 C 132.90625 85.234375 133.015625 84.824219 132.832031 84.507812 L 130.972656 81.28125 C 130.789062 80.960938 130.378906 80.851562 130.0625 81.035156 C 129.746094 81.21875 129.636719 81.625 129.820312 81.945312 Z M 146.222656 109.714844 C 146.332031 109.714844 146.445312 109.6875 146.550781 109.625 C 146.871094 109.441406 146.980469 109.035156 146.796875 108.714844 L 144.933594 105.488281 C 144.75 105.171875 144.34375 105.0625 144.027344 105.246094 C 143.707031 105.429688 143.597656 105.835938 143.78125 106.152344 L 145.644531 109.382812 C 145.765625 109.59375 145.988281 109.714844 146.222656 109.714844 Z M 126.316406 73.210938 C 126.132812 72.890625 125.726562 72.78125 125.410156 72.964844 C 125.089844 73.148438 124.980469 73.558594 125.164062 73.875 L 127.027344 77.105469 C 127.148438 77.316406 127.375 77.4375 127.605469 77.4375 C 127.714844 77.4375 127.832031 77.40625 127.933594 77.347656 C 128.253906 77.164062 128.363281 76.753906 128.179688 76.4375 Z M 182.167969 170.042969 C 181.984375 169.726562 181.578125 169.617188 181.257812 169.800781 C 180.941406 169.984375 180.832031 170.390625 181.015625 170.710938 L 182.878906 173.9375 C 183 174.152344 183.222656 174.269531 183.453125 174.269531 C 183.566406 174.269531 183.679688 174.242188 183.785156 174.183594 C 184.105469 174 184.214844 173.589844 184.03125 173.273438 Z M 155.773438 124.28125 L 155.769531 124.28125 L 154.242188 121.628906 C 154.058594 121.308594 153.652344 121.199219 153.335938 121.382812 C 153.015625 121.566406 152.90625 121.976562 153.089844 122.292969 L 154.289062 124.367188 L 153.492188 124.828125 C 153.175781 125.011719 153.066406 125.417969 153.25 125.738281 C 153.371094 125.953125 153.59375 126.070312 153.824219 126.070312 C 153.9375 126.070312 154.050781 126.042969 154.15625 125.980469 L 154.953125 125.519531 C 155.078125 125.734375 155.300781 125.855469 155.527344 125.855469 C 155.640625 125.855469 155.753906 125.824219 155.859375 125.765625 C 156.179688 125.582031 156.289062 125.171875 156.105469 124.855469 Z M 142.140625 100.648438 C 142.324219 100.964844 142.214844 101.371094 141.898438 101.554688 C 141.792969 101.617188 141.679688 101.644531 141.566406 101.644531 C 141.335938 101.644531 141.113281 101.523438 140.988281 101.3125 L 139.128906 98.085938 C 138.945312 97.765625 139.054688 97.359375 139.371094 97.175781 C 139.6875 96.992188 140.097656 97.101562 140.28125 97.417969 L 142.140625 100.648438 " fill-opacity="1" fill-rule="nonzero"/><path fill="#aa3dba" d="M 121.113281 67.132812 L 154.730469 86.5625 L 155.660156 84.949219 L 122.042969 65.519531 L 121.113281 67.132812 " fill-opacity="1" fill-rule="nonzero"/><path fill="#aa3dba" d="M 255.582031 65.519531 L 221.964844 84.949219 L 222.894531 86.5625 L 256.511719 67.132812 L 255.582031 65.519531 " fill-opacity="1" fill-rule="nonzero"/><path fill="#aa3dba" d="M 187.882812 182.898438 L 189.746094 182.898438 L 189.746094 144.042969 L 187.882812 144.042969 L 187.882812 182.898438 " fill-opacity="1" fill-rule="nonzero"/><path fill="#aa3dba" d="M 190.425781 143.109375 L 222.429688 87.617188 L 254.433594 143.109375 Z M 155.195312 87.617188 L 187.199219 143.109375 L 123.191406 143.109375 Z M 220.816406 86.6875 L 188.8125 142.179688 L 156.808594 86.6875 Z M 188.8125 29.332031 L 220.816406 84.824219 L 156.808594 84.824219 Z M 189.621094 27.003906 L 188.007812 27.003906 L 120.773438 143.574219 L 121.578125 144.972656 L 256.046875 144.972656 L 256.855469 143.574219 L 189.621094 27.003906 " fill-opacity="1" fill-rule="nonzero"/><path fill="#aa3dba" d="M 254.851562 143.351562 L 188.8125 181.515625 L 122.777344 143.351562 L 122.777344 67.019531 L 188.8125 28.855469 L 254.851562 67.019531 Z M 188.8125 26.085938 L 120.382812 65.636719 L 120.382812 144.730469 L 188.8125 184.28125 L 256.644531 145.078125 L 257.246094 144.730469 L 257.246094 65.636719 L 188.8125 26.085938 " fill-opacity="1" fill-rule="nonzero"/><g clip-path="url(#id1)"><path fill="#aa3dba" d="M 188.8125 8.0625 C 178.121094 8.0625 169.425781 16.769531 169.425781 27.46875 C 169.425781 38.171875 178.121094 46.878906 188.8125 46.878906 C 199.503906 46.878906 208.203125 38.171875 208.203125 27.46875 C 208.203125 16.769531 199.503906 8.0625 188.8125 8.0625 Z M 188.8125 48.742188 C 177.097656 48.742188 167.5625 39.199219 167.5625 27.46875 C 167.5625 15.742188 177.097656 6.199219 188.8125 6.199219 C 200.53125 6.199219 210.0625 15.742188 210.0625 27.46875 C 210.0625 39.199219 200.53125 48.742188 188.8125 48.742188 " fill-opacity="1" fill-rule="nonzero"/></g><g clip-path="url(#id2)"><path fill="#aa3dba" d="M 256.027344 46.914062 C 252.644531 46.914062 249.300781 47.816406 246.355469 49.519531 C 237.09375 54.871094 233.910156 66.761719 239.257812 76.03125 C 242.710938 82.019531 249.152344 85.738281 256.066406 85.738281 C 259.449219 85.738281 262.792969 84.835938 265.742188 83.132812 C 270.226562 80.542969 273.433594 76.359375 274.773438 71.351562 C 276.113281 66.34375 275.425781 61.113281 272.835938 56.625 C 269.386719 50.636719 262.945312 46.914062 256.027344 46.914062 Z M 256.066406 87.601562 C 248.488281 87.601562 241.429688 83.523438 237.644531 76.960938 C 231.785156 66.804688 235.277344 53.769531 245.421875 47.90625 C 248.652344 46.039062 252.320312 45.050781 256.027344 45.050781 C 263.605469 45.050781 270.664062 49.128906 274.449219 55.691406 C 277.289062 60.613281 278.042969 66.34375 276.574219 71.832031 C 275.105469 77.320312 271.585938 81.90625 266.671875 84.746094 C 263.441406 86.613281 259.773438 87.601562 256.066406 87.601562 " fill-opacity="1" fill-rule="nonzero"/></g><g clip-path="url(#id3)"><path fill="#aa3dba" d="M 256.066406 124.628906 C 249.152344 124.628906 242.710938 128.351562 239.257812 134.335938 C 233.910156 143.605469 237.09375 155.496094 246.355469 160.847656 C 249.300781 162.550781 252.644531 163.453125 256.027344 163.453125 C 262.945312 163.453125 269.386719 159.730469 272.835938 153.742188 C 275.425781 149.253906 276.113281 144.023438 274.773438 139.015625 C 273.433594 134.011719 270.226562 129.824219 265.742188 127.234375 C 262.792969 125.53125 259.449219 124.628906 256.066406 124.628906 Z M 256.027344 165.316406 C 252.320312 165.316406 248.652344 164.328125 245.421875 162.460938 C 235.277344 156.597656 231.785156 143.5625 237.644531 133.40625 C 241.429688 126.84375 248.488281 122.765625 256.066406 122.765625 C 259.773438 122.765625 263.441406 123.753906 266.671875 125.621094 C 271.585938 128.460938 275.105469 133.046875 276.574219 138.535156 C 278.042969 144.023438 277.289062 149.757812 274.449219 154.675781 C 270.664062 161.238281 263.605469 165.316406 256.027344 165.316406 " fill-opacity="1" fill-rule="nonzero"/></g><g clip-path="url(#id4)"><path fill="#aa3dba" d="M 188.8125 163.492188 C 178.121094 163.492188 169.425781 172.195312 169.425781 182.898438 C 169.425781 193.597656 178.121094 202.304688 188.8125 202.304688 C 199.503906 202.304688 208.203125 193.597656 208.203125 182.898438 C 208.203125 172.195312 199.503906 163.492188 188.8125 163.492188 Z M 188.8125 204.167969 C 177.097656 204.167969 167.5625 194.625 167.5625 182.898438 C 167.5625 171.167969 177.097656 161.625 188.8125 161.625 C 200.53125 161.625 210.0625 171.167969 210.0625 182.898438 C 210.0625 194.625 200.53125 204.167969 188.8125 204.167969 " fill-opacity="1" fill-rule="nonzero"/></g><path fill="#aa3dba" d="M 121.558594 124.628906 C 118.179688 124.628906 114.832031 125.53125 111.886719 127.234375 C 102.625 132.585938 99.445312 144.476562 104.789062 153.742188 C 108.242188 159.730469 114.683594 163.453125 121.597656 163.453125 C 124.980469 163.453125 128.324219 162.550781 131.273438 160.847656 C 140.53125 155.496094 143.714844 143.605469 138.367188 134.335938 C 134.914062 128.351562 128.472656 124.628906 121.558594 124.628906 Z M 121.597656 165.316406 C 114.019531 165.316406 106.960938 161.238281 103.175781 154.675781 C 97.316406 144.519531 100.808594 131.484375 110.953125 125.621094 C 114.183594 123.753906 117.851562 122.765625 121.558594 122.765625 C 129.136719 122.765625 136.195312 126.84375 139.980469 133.40625 C 145.839844 143.5625 142.351562 156.597656 132.203125 162.460938 C 128.972656 164.328125 125.308594 165.316406 121.597656 165.316406 " fill-opacity="1" fill-rule="nonzero"/><path fill="#aa3dba" d="M 121.597656 46.914062 C 114.683594 46.914062 108.242188 50.636719 104.789062 56.625 C 102.199219 61.113281 101.511719 66.34375 102.851562 71.351562 C 104.191406 76.359375 107.398438 80.542969 111.886719 83.132812 C 114.832031 84.835938 118.179688 85.738281 121.558594 85.738281 C 128.472656 85.738281 134.914062 82.019531 138.367188 76.03125 C 140.957031 71.542969 141.648438 66.3125 140.304688 61.304688 C 138.964844 56.296875 135.757812 52.109375 131.273438 49.519531 C 128.324219 47.816406 124.980469 46.914062 121.597656 46.914062 Z M 121.558594 87.601562 C 117.851562 87.601562 114.183594 86.613281 110.953125 84.746094 C 106.039062 81.90625 102.523438 77.320312 101.054688 71.832031 C 99.585938 66.34375 100.339844 60.613281 103.175781 55.691406 C 106.960938 49.128906 114.019531 45.050781 121.597656 45.050781 C 125.308594 45.050781 128.972656 46.039062 132.203125 47.90625 C 137.117188 50.746094 140.636719 55.332031 142.105469 60.820312 C 143.574219 66.308594 142.820312 72.042969 139.980469 76.960938 C 136.195312 83.523438 129.136719 87.601562 121.558594 87.601562 " fill-opacity="1" fill-rule="nonzero"/><path fill="#aa3dba" d="M 188.8125 33.011719 C 185.753906 33.011719 183.273438 30.53125 183.273438 27.46875 C 183.273438 24.40625 185.753906 21.925781 188.8125 21.925781 C 191.871094 21.925781 194.351562 24.40625 194.351562 27.46875 C 194.351562 30.53125 191.871094 33.011719 188.8125 33.011719 " fill-opacity="1" fill-rule="nonzero"/><path fill="#aa3dba" d="M 251.25 69.097656 C 249.722656 66.445312 250.628906 63.054688 253.277344 61.527344 C 255.925781 59.996094 259.3125 60.902344 260.84375 63.554688 C 262.375 66.207031 261.464844 69.597656 258.816406 71.128906 C 256.167969 72.660156 252.78125 71.75 251.25 69.097656 " fill-opacity="1" fill-rule="nonzero"/><path fill="#aa3dba" d="M 251.25 141.269531 C 252.78125 138.617188 256.167969 137.707031 258.816406 139.238281 C 261.464844 140.769531 262.375 144.160156 260.84375 146.8125 C 259.3125 149.464844 255.925781 150.375 253.277344 148.84375 C 250.628906 147.3125 249.722656 143.921875 251.25 141.269531 " fill-opacity="1" fill-rule="nonzero"/><path fill="#aa3dba" d="M 188.8125 177.355469 C 191.871094 177.355469 194.351562 179.835938 194.351562 182.898438 C 194.351562 185.960938 191.871094 188.441406 188.8125 188.441406 C 185.753906 188.441406 183.273438 185.960938 183.273438 182.898438 C 183.273438 179.835938 185.753906 177.355469 188.8125 177.355469 " fill-opacity="1" fill-rule="nonzero"/><path fill="#aa3dba" d="M 126.375 141.269531 C 127.90625 143.921875 126.996094 147.3125 124.347656 148.84375 C 121.699219 150.375 118.3125 149.464844 116.78125 146.8125 C 115.253906 144.160156 116.160156 140.769531 118.808594 139.238281 C 121.457031 137.707031 124.847656 138.617188 126.375 141.269531 " fill-opacity="1" fill-rule="nonzero"/><path fill="#aa3dba" d="M 126.375 69.097656 C 124.847656 71.75 121.457031 72.660156 118.808594 71.128906 C 116.160156 69.597656 115.253906 66.207031 116.78125 63.554688 C 118.3125 60.902344 121.699219 59.996094 124.347656 61.527344 C 126.996094 63.054688 127.90625 66.445312 126.375 69.097656 " fill-opacity="1" fill-rule="nonzero"/><path fill="#aa3dba" d="M 172.4375 20.761719 C 172.4375 22.316406 171.179688 23.574219 169.628906 23.574219 C 168.074219 23.574219 166.816406 22.316406 166.816406 20.761719 C 166.816406 19.210938 168.074219 17.949219 169.628906 17.949219 C 171.179688 17.949219 172.4375 19.210938 172.4375 20.761719 " fill-opacity="1" fill-rule="nonzero"/><path fill="#aa3dba" d="M 107.589844 77.167969 C 108.933594 77.945312 109.394531 79.667969 108.617188 81.011719 C 107.839844 82.359375 106.121094 82.820312 104.777344 82.042969 C 103.433594 81.265625 102.972656 79.546875 103.75 78.199219 C 104.527344 76.855469 106.242188 76.394531 107.589844 77.167969 " fill-opacity="1" fill-rule="nonzero"/><path fill="#aa3dba" d="M 123.964844 161.589844 C 125.308594 160.816406 127.027344 161.277344 127.804688 162.621094 C 128.578125 163.964844 128.117188 165.6875 126.773438 166.460938 C 125.429688 167.242188 123.710938 166.777344 122.9375 165.433594 C 122.160156 164.089844 122.621094 162.367188 123.964844 161.589844 " fill-opacity="1" fill-rule="nonzero"/><path fill="#aa3dba" d="M 205.191406 189.605469 C 205.191406 188.050781 206.449219 186.792969 208 186.792969 C 209.550781 186.792969 210.808594 188.050781 210.808594 189.605469 C 210.808594 191.160156 209.550781 192.417969 208 192.417969 C 206.449219 192.417969 205.191406 191.160156 205.191406 189.605469 " fill-opacity="1" fill-rule="nonzero"/><path fill="#aa3dba" d="M 270.039062 133.199219 C 268.695312 132.421875 268.234375 130.699219 269.007812 129.355469 C 269.785156 128.007812 271.503906 127.550781 272.847656 128.324219 C 274.191406 129.101562 274.652344 130.824219 273.875 132.167969 C 273.101562 133.511719 271.382812 133.972656 270.039062 133.199219 " fill-opacity="1" fill-rule="nonzero"/><path fill="#aa3dba" d="M 253.660156 48.777344 C 252.316406 49.554688 250.597656 49.09375 249.824219 47.746094 C 249.046875 46.402344 249.507812 44.679688 250.851562 43.90625 C 252.195312 43.128906 253.914062 43.589844 254.691406 44.933594 C 255.46875 46.277344 255.003906 48 253.660156 48.777344 " fill-opacity="1" fill-rule="nonzero"/><g fill="#873dba" fill-opacity="1"><g transform="translate(98.236827, 283.176508)"><g><path d="M 21.449219 0.921875 C 33.6875 0.921875 42.238281 -4.011719 41.84375 -12.828125 C 41.253906 -26.582031 9.210938 -30.792969 8.75 -39.410156 C 8.554688 -44.015625 13.488281 -45.925781 19.804688 -45.925781 C 24.542969 -45.925781 31.582031 -43.554688 38.949219 -38.753906 L 39.476562 -44.675781 C 33.488281 -46.386719 27.503906 -47.304688 22.105469 -47.304688 C 10.921875 -47.304688 1.511719 -43.492188 1.777344 -35.59375 C 2.304688 -24.476562 30.265625 -21.84375 33.488281 -11.316406 C 35.332031 -5.261719 30.332031 -0.460938 22.765625 -0.460938 C 17.566406 -0.460938 10.789062 -2.828125 2.828125 -8.421875 L 2.367188 -2.5 C 9.078125 -0.199219 15.59375 0.921875 21.449219 0.921875 Z M 21.449219 0.921875 "/></g></g></g><g fill="#873dba" fill-opacity="1"><g transform="translate(143.226276, 283.176508)"><g><path d="M 25.460938 1.050781 C 40.925781 1.050781 48.292969 -9.738281 48.292969 -22.898438 C 48.292969 -37.570312 40.925781 -47.242188 25.460938 -47.242188 C 10 -47.242188 2.632812 -37.570312 2.632812 -22.898438 C 2.632812 -9.738281 10 1.050781 25.460938 1.050781 Z M 25.460938 0 C 15.59375 0 11.84375 -10.855469 11.84375 -22.898438 C 11.84375 -34.738281 14.738281 -46.1875 25.460938 -46.1875 C 35.726562 -46.1875 39.082031 -34.738281 39.082031 -22.898438 C 39.082031 -10.855469 35.726562 0 25.460938 0 Z M 25.460938 0 "/></g></g></g><g fill="#873dba" fill-opacity="1"><g transform="translate(194.135395, 283.176508)"><g><path d="M 22.632812 0.988281 C 33.753906 0.988281 42.042969 -5 42.042969 -16.976562 L 42.042969 -46.1875 L 32.832031 -46.1875 L 32.832031 -11.578125 C 32.832031 -3.949219 28.359375 -0.0664062 22.632812 -0.0664062 C 16.84375 -0.0664062 12.238281 -3.949219 12.238281 -11.578125 L 12.238281 -46.1875 L 2.960938 -46.1875 L 2.960938 -16.976562 C 2.960938 -5 11.449219 0.988281 22.632812 0.988281 Z M 22.632812 0.988281 "/></g></g></g><g fill="#873dba" fill-opacity="1"><g transform="translate(239.059077, 283.176508)"><g><path d="M 35.464844 0 L 35.464844 -5.921875 C 28.621094 -2.238281 22.832031 -1.050781 12.828125 -1.050781 L 12.828125 -46.1875 L 3.617188 -46.1875 L 3.617188 0 Z M 35.464844 0 "/></g></g></g><g fill="#aa3dba" fill-opacity="1"><g transform="translate(83.626368, 350.117354)"><g><path d="M 17.3125 -35.359375 L 2.707031 -35.359375 L 2.707031 0.0546875 L 14.664062 0.0546875 C 16.355469 0.0546875 35.246094 0.902344 35.246094 -18.214844 C 35.246094 -33.667969 23.855469 -35.359375 17.3125 -35.359375 Z M 14.550781 -0.847656 L 6.710938 -0.847656 L 6.710938 -34.402344 L 15.171875 -34.402344 C 21.597656 -34.402344 31.074219 -32.03125 31.074219 -18.214844 C 31.074219 -4.457031 22.277344 -0.847656 14.550781 -0.847656 Z M 14.550781 -0.847656 "/></g></g></g><g fill="#aa3dba" fill-opacity="1"><g transform="translate(129.922812, 350.117354)"><g><path d="M 3.269531 0.0546875 L 7.273438 0.0546875 L 7.273438 -35.359375 L 3.269531 -35.359375 Z M 3.269531 0.0546875 "/></g></g></g><g fill="#aa3dba" fill-opacity="1"><g transform="translate(149.209697, 350.117354)"><g><path d="M 32.425781 -35.359375 L 19.0625 -5.300781 L 6.203125 -35.359375 L 1.859375 -35.359375 L 17.3125 0.789062 L 17.652344 0.789062 L 33.722656 -35.359375 Z M 32.425781 -35.359375 "/></g></g></g><g fill="#aa3dba" fill-opacity="1"><g transform="translate(193.307041, 350.117354)"><g><path d="M 3.269531 0.0546875 L 7.273438 0.0546875 L 7.273438 -35.359375 L 3.269531 -35.359375 Z M 3.269531 0.0546875 "/></g></g></g><g fill="#aa3dba" fill-opacity="1"><g transform="translate(212.593925, 350.117354)"><g><path d="M 31.46875 -35.359375 L 30.566406 -35.359375 L 30.566406 -5.359375 L 2.820312 -36.035156 L 2.707031 -36.035156 L 2.707031 0.0546875 L 3.609375 0.0546875 L 3.609375 -29.609375 L 31.300781 1.070312 L 31.46875 1.070312 Z M 31.46875 -35.359375 "/></g></g></g><g fill="#aa3dba" fill-opacity="1"><g transform="translate(255.507124, 350.117354)"><g><path d="M 29.496094 0.0546875 L 33.835938 0.0546875 L 18.328125 -36.035156 L 18.046875 -36.035156 L 1.972656 0.0546875 L 3.214844 0.0546875 L 9.585938 -14.15625 L 23.347656 -14.15625 Z M 9.980469 -15.113281 L 16.582031 -29.945312 L 22.953125 -15.113281 Z M 9.980469 -15.113281 "/></g></g></g></svg>