<svg xmlns="http://www.w3.org/2000/svg" xmlns:xlink="http://www.w3.org/1999/xlink" width="500" zoomAndPan="magnify" viewBox="0 0 375 374.999991" height="500" preserveAspectRatio="xMidYMid meet" version="1.0"><defs><clipPath id="id1"><path d="M 150 2.441406 L 231 2.441406 L 231 82 L 150 82 Z M 150 2.441406 " clip-rule="nonzero"/></clipPath><clipPath id="id2"><path d="M 276 75 L 355.832031 75 L 355.832031 154.605469 L 276 154.605469 Z M 276 75 " clip-rule="nonzero"/></clipPath><clipPath id="id3"><path d="M 276 220 L 355.832031 220 L 355.832031 299.769531 L 276 299.769531 Z M 276 220 " clip-rule="nonzero"/></clipPath><clipPath id="id4"><path d="M 150.105469 292.3125 L 230.210938 292.3125 L 230.210938 372.164062 L 150.105469 372.164062 Z M 150.105469 292.3125 " clip-rule="nonzero"/></clipPath></defs><path fill="#aa3dba" d="M 190.277344 63.804688 C 190.960938 63.804688 191.519531 63.25 191.519531 62.5625 L 191.519531 55.601562 C 191.519531 54.914062 190.960938 54.359375 190.277344 54.359375 C 189.585938 54.359375 189.03125 54.914062 189.03125 55.601562 L 189.03125 62.5625 C 189.03125 63.25 189.585938 63.804688 190.277344 63.804688 Z M 190.277344 81.207031 C 190.960938 81.207031 191.519531 80.648438 191.519531 79.964844 L 191.519531 73.003906 C 191.519531 72.316406 190.960938 71.761719 190.277344 71.761719 C 189.585938 71.761719 189.03125 72.316406 189.03125 73.003906 L 189.03125 79.964844 C 189.03125 80.648438 189.585938 81.207031 190.277344 81.207031 Z M 190.277344 98.605469 C 190.960938 98.605469 191.519531 98.050781 191.519531 97.363281 L 191.519531 90.402344 C 191.519531 89.714844 190.960938 89.160156 190.277344 89.160156 C 189.585938 89.160156 189.03125 89.714844 189.03125 90.402344 L 189.03125 97.363281 C 189.03125 98.050781 189.585938 98.605469 190.277344 98.605469 Z M 190.277344 46.40625 C 190.960938 46.40625 191.519531 45.847656 191.519531 45.164062 L 191.519531 42.203125 C 191.519531 41.515625 190.960938 40.960938 190.277344 40.960938 C 189.585938 40.960938 189.03125 41.515625 189.03125 42.203125 L 189.03125 45.164062 C 189.03125 45.847656 189.585938 46.40625 190.277344 46.40625 Z M 289.984375 243.40625 L 283.953125 239.925781 C 283.359375 239.585938 282.597656 239.785156 282.253906 240.382812 C 281.910156 240.976562 282.113281 241.738281 282.707031 242.078125 L 288.742188 245.558594 C 288.9375 245.671875 289.148438 245.726562 289.363281 245.726562 C 289.789062 245.726562 290.210938 245.503906 290.4375 245.105469 C 290.78125 244.511719 290.578125 243.75 289.984375 243.40625 Z M 274.902344 234.707031 L 268.867188 231.226562 C 268.277344 230.886719 267.515625 231.085938 267.171875 231.679688 C 266.828125 232.277344 267.03125 233.035156 267.625 233.378906 L 273.65625 236.859375 C 273.855469 236.972656 274.066406 237.027344 274.28125 237.027344 C 274.710938 237.027344 275.128906 236.804688 275.359375 236.402344 C 275.703125 235.808594 275.5 235.050781 274.902344 234.707031 Z M 259.820312 226.007812 L 254.863281 223.148438 C 255.207031 222.554688 255.003906 221.792969 254.410156 221.453125 C 253.816406 221.109375 253.054688 221.3125 252.710938 221.90625 L 252.089844 222.980469 C 252.089844 222.984375 252.089844 222.984375 252.085938 222.984375 L 249.230469 227.933594 C 248.882812 228.527344 249.089844 229.289062 249.683594 229.632812 C 249.878906 229.746094 250.089844 229.800781 250.304688 229.800781 C 250.734375 229.800781 251.152344 229.578125 251.382812 229.179688 L 253.621094 225.300781 L 258.578125 228.160156 C 258.773438 228.273438 258.984375 228.324219 259.199219 228.324219 C 259.628906 228.324219 260.046875 228.105469 260.277344 227.703125 C 260.621094 227.109375 260.417969 226.351562 259.820312 226.007812 Z M 305.066406 252.105469 L 299.035156 248.625 C 298.4375 248.28125 297.675781 248.488281 297.332031 249.082031 C 296.992188 249.675781 297.195312 250.4375 297.789062 250.777344 L 303.824219 254.257812 C 304.019531 254.375 304.234375 254.425781 304.441406 254.425781 C 304.871094 254.425781 305.292969 254.203125 305.519531 253.804688 C 305.867188 253.210938 305.660156 252.449219 305.066406 252.105469 Z M 316.679688 258.808594 L 314.117188 257.328125 C 313.519531 256.984375 312.757812 257.1875 312.414062 257.78125 C 312.070312 258.375 312.277344 259.136719 312.871094 259.480469 L 315.4375 260.960938 C 315.632812 261.074219 315.847656 261.128906 316.058594 261.128906 C 316.488281 261.128906 316.90625 260.902344 317.136719 260.507812 C 317.480469 259.910156 317.277344 259.152344 316.679688 258.808594 Z M 69.902344 255.328125 L 63.871094 258.808594 C 63.273438 259.152344 63.070312 259.910156 63.414062 260.507812 C 63.644531 260.902344 64.0625 261.128906 64.492188 261.128906 C 64.703125 261.128906 64.917969 261.074219 65.113281 260.960938 L 71.144531 257.480469 C 71.742188 257.136719 71.945312 256.378906 71.601562 255.78125 C 71.257812 255.1875 70.496094 254.984375 69.902344 255.328125 Z M 115.144531 229.226562 L 109.113281 232.707031 C 108.519531 233.050781 108.316406 233.808594 108.65625 234.40625 C 108.890625 234.804688 109.308594 235.027344 109.738281 235.027344 C 109.949219 235.027344 110.164062 234.972656 110.359375 234.859375 L 116.390625 231.378906 C 116.984375 231.035156 117.1875 230.277344 116.847656 229.683594 C 116.503906 229.085938 115.742188 228.882812 115.144531 229.226562 Z M 100.066406 237.925781 L 94.03125 241.40625 C 93.4375 241.75 93.234375 242.507812 93.578125 243.105469 C 93.808594 243.503906 94.222656 243.726562 94.65625 243.726562 C 94.867188 243.726562 95.078125 243.671875 95.277344 243.558594 L 101.308594 240.082031 C 101.902344 239.738281 102.109375 238.976562 101.765625 238.382812 C 101.417969 237.785156 100.660156 237.582031 100.066406 237.925781 Z M 84.984375 246.625 L 78.949219 250.105469 C 78.355469 250.449219 78.152344 251.210938 78.496094 251.804688 C 78.726562 252.203125 79.144531 252.425781 79.574219 252.425781 C 79.785156 252.425781 80 252.371094 80.195312 252.261719 L 86.226562 248.78125 C 86.820312 248.4375 87.027344 247.675781 86.679688 247.082031 C 86.339844 246.488281 85.578125 246.28125 84.984375 246.625 Z M 219.152344 222.359375 L 212.1875 222.359375 C 211.5 222.359375 210.945312 222.917969 210.945312 223.601562 C 210.945312 224.289062 211.5 224.84375 212.1875 224.84375 L 219.152344 224.84375 C 219.839844 224.84375 220.398438 224.289062 220.398438 223.601562 C 220.398438 222.917969 219.839844 222.359375 219.152344 222.359375 Z M 201.738281 222.359375 L 194.773438 222.359375 C 194.085938 222.359375 193.527344 222.917969 193.527344 223.601562 C 193.527344 224.289062 194.085938 224.84375 194.773438 224.84375 L 201.738281 224.84375 C 202.425781 224.84375 202.984375 224.289062 202.984375 223.601562 C 202.984375 222.917969 202.425781 222.359375 201.738281 222.359375 Z M 158.699219 223.601562 C 158.699219 224.289062 159.257812 224.84375 159.945312 224.84375 L 166.910156 224.84375 C 167.597656 224.84375 168.152344 224.289062 168.152344 223.601562 C 168.152344 222.917969 167.597656 222.359375 166.910156 222.359375 L 159.945312 222.359375 C 159.257812 222.359375 158.699219 222.917969 158.699219 223.601562 Z M 141.285156 223.601562 C 141.285156 224.289062 141.84375 224.84375 142.527344 224.84375 L 149.496094 224.84375 C 150.183594 224.84375 150.738281 224.289062 150.738281 223.601562 C 150.738281 222.917969 150.183594 222.359375 149.496094 222.359375 L 142.527344 222.359375 C 141.84375 222.359375 141.285156 222.917969 141.285156 223.601562 Z M 184.324219 222.359375 L 177.359375 222.359375 C 176.671875 222.359375 176.113281 222.917969 176.113281 223.601562 C 176.113281 224.289062 176.671875 224.84375 177.359375 224.84375 L 184.324219 224.84375 C 185.011719 224.84375 185.566406 224.289062 185.566406 223.601562 C 185.566406 222.917969 185.011719 222.359375 184.324219 222.359375 Z M 236.566406 222.359375 L 229.601562 222.359375 C 228.917969 222.359375 228.359375 222.917969 228.359375 223.601562 C 228.359375 224.289062 228.917969 224.84375 229.601562 224.84375 L 236.566406 224.84375 C 237.257812 224.84375 237.8125 224.289062 237.8125 223.601562 C 237.8125 222.917969 237.257812 222.359375 236.566406 222.359375 Z M 199.652344 128.503906 C 199.308594 127.910156 198.546875 127.703125 197.949219 128.046875 C 197.359375 128.390625 197.152344 129.152344 197.496094 129.746094 L 200.980469 135.773438 C 201.210938 136.171875 201.628906 136.394531 202.058594 136.394531 C 202.269531 136.394531 202.484375 136.339844 202.675781 136.226562 C 203.273438 135.882812 203.476562 135.125 203.132812 134.53125 Z M 206.65625 143.117188 C 206.066406 143.460938 205.859375 144.21875 206.203125 144.816406 L 209.6875 150.84375 C 209.917969 151.242188 210.335938 151.464844 210.765625 151.464844 C 210.976562 151.464844 211.191406 151.410156 211.386719 151.296875 C 211.980469 150.953125 212.1875 150.195312 211.839844 149.601562 L 208.359375 143.574219 C 208.015625 142.976562 207.253906 142.773438 206.65625 143.117188 Z M 224.074219 173.253906 C 223.476562 173.597656 223.273438 174.359375 223.617188 174.953125 L 227.101562 180.980469 C 227.332031 181.378906 227.75 181.601562 228.179688 181.601562 C 228.390625 181.601562 228.605469 181.546875 228.800781 181.433594 C 229.394531 181.089844 229.597656 180.332031 229.253906 179.738281 L 225.769531 173.710938 C 225.429688 173.117188 224.667969 172.910156 224.074219 173.253906 Z M 217.066406 158.640625 C 216.722656 158.046875 215.960938 157.84375 215.367188 158.1875 C 214.773438 158.53125 214.570312 159.289062 214.910156 159.882812 L 218.394531 165.910156 C 218.625 166.3125 219.042969 166.53125 219.472656 166.53125 C 219.683594 166.53125 219.898438 166.480469 220.09375 166.367188 C 220.6875 166.023438 220.894531 165.261719 220.550781 164.667969 Z M 234.480469 188.777344 C 234.136719 188.183594 233.375 187.980469 232.78125 188.324219 C 232.183594 188.667969 231.980469 189.429688 232.324219 190.019531 L 235.808594 196.046875 C 236.039062 196.445312 236.457031 196.667969 236.886719 196.667969 C 237.097656 196.667969 237.3125 196.617188 237.507812 196.503906 C 238.101562 196.160156 238.304688 195.398438 237.960938 194.804688 Z M 243.1875 203.847656 C 242.84375 203.253906 242.082031 203.050781 241.488281 203.394531 C 240.894531 203.734375 240.6875 204.496094 241.03125 205.089844 L 244.515625 211.117188 C 244.746094 211.515625 245.164062 211.738281 245.59375 211.738281 C 245.804688 211.738281 246.019531 211.683594 246.214844 211.574219 C 246.808594 211.230469 247.011719 210.46875 246.667969 209.875 Z M 178.597656 134.972656 C 178.792969 135.085938 179.007812 135.140625 179.214844 135.140625 C 179.648438 135.140625 180.066406 134.917969 180.296875 134.519531 L 183.777344 128.492188 C 184.121094 127.898438 183.917969 127.136719 183.324219 126.792969 C 182.726562 126.449219 181.964844 126.652344 181.625 127.25 L 178.140625 133.277344 C 177.796875 133.871094 178 134.628906 178.597656 134.972656 Z M 139.785156 202.136719 C 139.191406 201.792969 138.429688 202 138.085938 202.59375 L 134.605469 208.621094 C 134.261719 209.214844 134.464844 209.972656 135.058594 210.316406 C 135.257812 210.429688 135.46875 210.484375 135.679688 210.484375 C 136.109375 210.484375 136.527344 210.261719 136.757812 209.863281 L 140.242188 203.835938 C 140.585938 203.242188 140.382812 202.480469 139.785156 202.136719 Z M 161.183594 165.109375 C 161.378906 165.222656 161.589844 165.277344 161.800781 165.277344 C 162.234375 165.277344 162.652344 165.054688 162.878906 164.65625 L 166.363281 158.628906 C 166.707031 158.035156 166.503906 157.273438 165.910156 156.929688 C 165.3125 156.585938 164.550781 156.792969 164.210938 157.386719 L 160.726562 163.414062 C 160.382812 164.007812 160.585938 164.765625 161.183594 165.109375 Z M 174.617188 141.863281 C 174.019531 141.519531 173.257812 141.722656 172.917969 142.316406 L 169.433594 148.34375 C 169.089844 148.941406 169.292969 149.699219 169.890625 150.042969 C 170.085938 150.15625 170.300781 150.207031 170.507812 150.207031 C 170.941406 150.207031 171.359375 149.988281 171.585938 149.585938 L 175.070312 143.558594 C 175.414062 142.964844 175.210938 142.207031 174.617188 141.863281 Z M 157.199219 172 C 156.605469 171.65625 155.84375 171.859375 155.503906 172.457031 L 152.019531 178.484375 C 151.675781 179.078125 151.878906 179.835938 152.472656 180.179688 C 152.671875 180.292969 152.882812 180.347656 153.09375 180.347656 C 153.527344 180.347656 153.945312 180.125 154.171875 179.726562 L 157.65625 173.699219 C 158 173.105469 157.796875 172.34375 157.199219 172 Z M 143.765625 195.25 C 143.964844 195.363281 144.175781 195.414062 144.386719 195.414062 C 144.820312 195.414062 145.238281 195.195312 145.464844 194.792969 L 148.949219 188.765625 C 149.292969 188.171875 149.089844 187.414062 148.492188 187.070312 C 147.898438 186.726562 147.136719 186.929688 146.796875 187.523438 L 143.3125 193.550781 C 142.96875 194.144531 143.171875 194.90625 143.765625 195.25 Z M 197.242188 114.761719 C 197.242188 114.074219 196.683594 113.519531 195.996094 113.519531 L 191.519531 113.519531 L 191.519531 107.804688 C 191.519531 107.117188 190.960938 106.5625 190.277344 106.5625 C 189.585938 106.5625 189.03125 107.117188 189.03125 107.804688 L 189.03125 113.519531 C 188.34375 113.519531 187.789062 114.074219 187.789062 114.761719 C 187.789062 115.449219 188.34375 116.007812 189.03125 116.007812 L 195.996094 116.007812 C 196.683594 116.007812 197.242188 115.449219 197.242188 114.761719 Z M 266.898438 114.761719 C 266.898438 114.074219 266.34375 113.519531 265.65625 113.519531 L 258.691406 113.519531 C 258.003906 113.519531 257.445312 114.074219 257.445312 114.761719 C 257.445312 115.449219 258.003906 116.007812 258.691406 116.007812 L 265.65625 116.007812 C 266.34375 116.007812 266.898438 115.449219 266.898438 114.761719 Z M 223.859375 116.007812 L 230.828125 116.007812 C 231.515625 116.007812 232.070312 115.449219 232.070312 114.761719 C 232.070312 114.074219 231.515625 113.519531 230.828125 113.519531 L 223.859375 113.519531 C 223.175781 113.519531 222.617188 114.074219 222.617188 114.761719 C 222.617188 115.449219 223.175781 116.007812 223.859375 116.007812 Z M 293.519531 116.007812 L 300.484375 116.007812 C 301.171875 116.007812 301.730469 115.449219 301.730469 114.761719 C 301.730469 114.074219 301.171875 113.519531 300.484375 113.519531 L 293.519531 113.519531 C 292.832031 113.519531 292.277344 114.074219 292.277344 114.761719 C 292.277344 115.449219 292.832031 116.007812 293.519531 116.007812 Z M 206.445312 116.007812 L 213.410156 116.007812 C 214.101562 116.007812 214.65625 115.449219 214.65625 114.761719 C 214.65625 114.074219 214.101562 113.519531 213.410156 113.519531 L 206.445312 113.519531 C 205.761719 113.519531 205.203125 114.074219 205.203125 114.761719 C 205.203125 115.449219 205.761719 116.007812 206.445312 116.007812 Z M 249.484375 114.761719 C 249.484375 114.074219 248.929688 113.519531 248.242188 113.519531 L 241.277344 113.519531 C 240.589844 113.519531 240.03125 114.074219 240.03125 114.761719 C 240.03125 115.449219 240.589844 116.007812 241.277344 116.007812 L 248.242188 116.007812 C 248.929688 116.007812 249.484375 115.449219 249.484375 114.761719 Z M 276.105469 116.007812 L 283.070312 116.007812 C 283.757812 116.007812 284.316406 115.449219 284.316406 114.761719 C 284.316406 114.074219 283.757812 113.519531 283.070312 113.519531 L 276.105469 113.519531 C 275.417969 113.519531 274.859375 114.074219 274.859375 114.761719 C 274.859375 115.449219 275.417969 116.007812 276.105469 116.007812 Z M 136.789062 116.007812 L 143.753906 116.007812 C 144.441406 116.007812 144.996094 115.449219 144.996094 114.761719 C 144.996094 114.074219 144.441406 113.519531 143.753906 113.519531 L 136.789062 113.519531 C 136.101562 113.519531 135.542969 114.074219 135.542969 114.761719 C 135.542969 115.449219 136.101562 116.007812 136.789062 116.007812 Z M 154.203125 116.007812 L 161.167969 116.007812 C 161.855469 116.007812 162.410156 115.449219 162.410156 114.761719 C 162.410156 114.074219 161.855469 113.519531 161.167969 113.519531 L 154.203125 113.519531 C 153.515625 113.519531 152.957031 114.074219 152.957031 114.761719 C 152.957031 115.449219 153.515625 116.007812 154.203125 116.007812 Z M 84.542969 116.007812 L 91.507812 116.007812 C 92.199219 116.007812 92.753906 115.449219 92.753906 114.761719 C 92.753906 114.074219 92.199219 113.519531 91.507812 113.519531 L 84.542969 113.519531 C 83.855469 113.519531 83.300781 114.074219 83.300781 114.761719 C 83.300781 115.449219 83.855469 116.007812 84.542969 116.007812 Z M 101.957031 116.007812 L 108.925781 116.007812 C 109.613281 116.007812 110.167969 115.449219 110.167969 114.761719 C 110.167969 114.074219 109.613281 113.519531 108.925781 113.519531 L 101.957031 113.519531 C 101.273438 113.519531 100.714844 114.074219 100.714844 114.761719 C 100.714844 115.449219 101.273438 116.007812 101.957031 116.007812 Z M 119.371094 116.007812 L 126.339844 116.007812 C 127.027344 116.007812 127.582031 115.449219 127.582031 114.761719 C 127.582031 114.074219 127.027344 113.519531 126.339844 113.519531 L 119.371094 113.519531 C 118.6875 113.519531 118.128906 114.074219 118.128906 114.761719 C 118.128906 115.449219 118.6875 116.007812 119.371094 116.007812 Z M 171.617188 116.007812 L 178.582031 116.007812 C 179.269531 116.007812 179.828125 115.449219 179.828125 114.761719 C 179.828125 114.074219 179.269531 113.519531 178.582031 113.519531 L 171.617188 113.519531 C 170.929688 113.519531 170.371094 114.074219 170.371094 114.761719 C 170.371094 115.449219 170.929688 116.007812 171.617188 116.007812 Z M 245.703125 236.519531 C 245.109375 236.179688 244.347656 236.382812 244.003906 236.976562 L 240.519531 243.003906 C 240.175781 243.597656 240.382812 244.355469 240.976562 244.699219 C 241.171875 244.8125 241.382812 244.867188 241.597656 244.867188 C 242.027344 244.867188 242.445312 244.644531 242.675781 244.246094 L 246.15625 238.21875 C 246.5 237.625 246.296875 236.863281 245.703125 236.519531 Z M 306.65625 131.039062 C 306.058594 130.695312 305.296875 130.898438 304.957031 131.492188 L 301.472656 137.519531 C 301.128906 138.117188 301.332031 138.875 301.925781 139.21875 C 302.121094 139.332031 302.335938 139.386719 302.546875 139.386719 C 302.976562 139.386719 303.398438 139.164062 303.625 138.765625 L 307.109375 132.734375 C 307.453125 132.140625 307.25 131.382812 306.65625 131.039062 Z M 284.511719 169.355469 C 284.707031 169.46875 284.921875 169.523438 285.132812 169.523438 C 285.5625 169.523438 285.980469 169.300781 286.210938 168.902344 L 289.695312 162.875 C 290.039062 162.28125 289.835938 161.519531 289.238281 161.175781 C 288.644531 160.832031 287.882812 161.035156 287.542969 161.628906 L 284.058594 167.660156 C 283.714844 168.253906 283.917969 169.015625 284.511719 169.355469 Z M 263.117188 206.382812 C 262.523438 206.039062 261.761719 206.242188 261.417969 206.835938 L 257.9375 212.867188 C 257.59375 213.460938 257.796875 214.21875 258.390625 214.5625 C 258.585938 214.675781 258.800781 214.730469 259.011719 214.730469 C 259.441406 214.730469 259.859375 214.507812 260.089844 214.109375 L 263.574219 208.082031 C 263.917969 207.488281 263.710938 206.726562 263.117188 206.382812 Z M 280.53125 176.246094 C 279.9375 175.902344 279.175781 176.105469 278.832031 176.699219 L 275.351562 182.726562 C 275.007812 183.324219 275.210938 184.082031 275.804688 184.425781 C 276 184.539062 276.214844 184.59375 276.425781 184.59375 C 276.855469 184.59375 277.273438 184.371094 277.503906 183.972656 L 280.988281 177.941406 C 281.332031 177.347656 281.128906 176.585938 280.53125 176.246094 Z M 236.996094 251.589844 C 236.402344 251.246094 235.640625 251.449219 235.296875 252.042969 L 231.8125 258.074219 C 231.46875 258.667969 231.675781 259.425781 232.269531 259.769531 C 232.464844 259.882812 232.675781 259.9375 232.890625 259.9375 C 233.320312 259.9375 233.738281 259.714844 233.96875 259.316406 L 237.449219 253.289062 C 237.792969 252.695312 237.589844 251.933594 236.996094 251.589844 Z M 297.945312 146.105469 C 297.351562 145.765625 296.589844 145.96875 296.25 146.5625 L 292.765625 152.589844 C 292.421875 153.183594 292.625 153.945312 293.21875 154.289062 C 293.414062 154.402344 293.628906 154.457031 293.839844 154.457031 C 294.269531 154.457031 294.691406 154.230469 294.917969 153.832031 L 298.402344 147.804688 C 298.746094 147.210938 298.542969 146.449219 297.945312 146.105469 Z M 267.71875 199.660156 C 268.148438 199.660156 268.566406 199.4375 268.796875 199.039062 L 272.28125 193.011719 C 272.625 192.417969 272.417969 191.65625 271.824219 191.3125 C 271.230469 190.972656 270.46875 191.175781 270.125 191.769531 L 266.644531 197.796875 C 266.300781 198.390625 266.503906 199.152344 267.097656 199.496094 C 267.292969 199.609375 267.507812 199.660156 267.71875 199.660156 Z M 210.875 296.796875 C 210.277344 296.453125 209.515625 296.65625 209.175781 297.25 L 205.691406 303.28125 C 205.347656 303.875 205.550781 304.632812 206.148438 304.976562 C 206.339844 305.089844 206.554688 305.144531 206.765625 305.144531 C 207.195312 305.144531 207.617188 304.921875 207.84375 304.523438 L 211.328125 298.496094 C 211.671875 297.898438 211.46875 297.140625 210.875 296.796875 Z M 228.289062 266.65625 C 227.695312 266.3125 226.933594 266.519531 226.589844 267.113281 L 223.105469 273.140625 C 222.761719 273.734375 222.96875 274.496094 223.5625 274.839844 C 223.757812 274.953125 223.96875 275.003906 224.179688 275.003906 C 224.609375 275.003906 225.03125 274.78125 225.261719 274.382812 L 228.742188 268.355469 C 229.085938 267.761719 228.882812 267 228.289062 266.65625 Z M 202.167969 311.863281 C 201.570312 311.519531 200.808594 311.726562 200.46875 312.320312 L 196.984375 318.347656 C 196.640625 318.941406 196.84375 319.703125 197.441406 320.042969 C 197.632812 320.160156 197.847656 320.210938 198.058594 320.210938 C 198.488281 320.210938 198.910156 319.988281 199.136719 319.589844 L 202.621094 313.5625 C 202.964844 312.96875 202.761719 312.207031 202.167969 311.863281 Z M 219.582031 281.726562 C 218.984375 281.382812 218.222656 281.585938 217.882812 282.183594 L 214.398438 288.210938 C 214.054688 288.804688 214.257812 289.5625 214.855469 289.90625 C 215.046875 290.019531 215.261719 290.074219 215.472656 290.074219 C 215.902344 290.074219 216.324219 289.851562 216.554688 289.453125 L 220.035156 283.425781 C 220.378906 282.832031 220.175781 282.070312 219.582031 281.726562 Z M 143.011719 248.167969 C 142.667969 247.574219 141.910156 247.367188 141.3125 247.710938 C 140.71875 248.054688 140.515625 248.816406 140.859375 249.410156 L 144.34375 255.4375 C 144.570312 255.835938 144.988281 256.058594 145.421875 256.058594 C 145.632812 256.058594 145.84375 256.007812 146.039062 255.890625 C 146.636719 255.550781 146.839844 254.789062 146.496094 254.195312 Z M 151.71875 263.234375 C 151.378906 262.640625 150.617188 262.4375 150.023438 262.78125 C 149.425781 263.125 149.222656 263.886719 149.566406 264.480469 L 153.050781 270.507812 C 153.277344 270.90625 153.695312 271.128906 154.128906 271.128906 C 154.339844 271.128906 154.550781 271.074219 154.75 270.960938 C 155.34375 270.617188 155.546875 269.859375 155.203125 269.265625 Z M 169.136719 293.375 C 168.792969 292.78125 168.03125 292.574219 167.4375 292.917969 C 166.839844 293.261719 166.636719 294.023438 166.980469 294.617188 L 170.464844 300.644531 C 170.695312 301.042969 171.113281 301.265625 171.542969 301.265625 C 171.753906 301.265625 171.964844 301.210938 172.164062 301.097656 C 172.757812 300.753906 172.960938 299.996094 172.617188 299.402344 Z M 134.304688 233.097656 C 133.960938 232.503906 133.203125 232.300781 132.605469 232.644531 C 132.011719 232.984375 131.808594 233.746094 132.152344 234.34375 L 135.636719 240.371094 C 135.863281 240.769531 136.28125 240.992188 136.714844 240.992188 C 136.921875 240.992188 137.136719 240.9375 137.332031 240.824219 C 137.929688 240.480469 138.132812 239.722656 137.789062 239.125 Z M 94.25 163.78125 L 90.769531 157.753906 C 90.425781 157.160156 89.664062 156.957031 89.070312 157.300781 C 88.476562 157.640625 88.269531 158.402344 88.617188 158.996094 L 92.097656 165.023438 C 92.328125 165.421875 92.746094 165.648438 93.175781 165.648438 C 93.386719 165.648438 93.601562 165.59375 93.796875 165.480469 C 94.390625 165.136719 94.597656 164.375 94.25 163.78125 Z M 160.425781 278.304688 C 160.082031 277.710938 159.324219 277.503906 158.730469 277.847656 C 158.132812 278.191406 157.929688 278.953125 158.273438 279.546875 L 161.757812 285.574219 C 161.984375 285.972656 162.402344 286.195312 162.835938 286.195312 C 163.046875 286.195312 163.257812 286.144531 163.457031 286.027344 C 164.050781 285.6875 164.253906 284.925781 163.910156 284.332031 Z M 116.890625 202.960938 C 116.546875 202.367188 115.785156 202.160156 115.191406 202.503906 C 114.597656 202.847656 114.394531 203.609375 114.738281 204.203125 L 118.21875 210.230469 C 118.449219 210.628906 118.867188 210.851562 119.300781 210.851562 C 119.507812 210.851562 119.722656 210.800781 119.917969 210.6875 C 120.515625 210.34375 120.71875 209.582031 120.375 208.988281 Z M 83.390625 149.957031 C 83.621094 150.355469 84.039062 150.578125 84.46875 150.578125 C 84.679688 150.578125 84.894531 150.523438 85.089844 150.410156 C 85.683594 150.066406 85.886719 149.308594 85.542969 148.710938 L 82.0625 142.683594 C 81.71875 142.089844 80.957031 141.886719 80.363281 142.230469 C 79.769531 142.574219 79.5625 143.332031 79.90625 143.929688 Z M 110.589844 195.785156 C 110.800781 195.785156 111.015625 195.730469 111.210938 195.617188 C 111.804688 195.273438 112.011719 194.515625 111.667969 193.917969 L 108.183594 187.890625 C 107.839844 187.296875 107.078125 187.09375 106.484375 187.4375 C 105.890625 187.78125 105.6875 188.539062 106.03125 189.136719 L 109.511719 195.164062 C 109.742188 195.5625 110.160156 195.785156 110.589844 195.785156 Z M 73.355469 127.617188 C 73.011719 127.019531 72.25 126.816406 71.65625 127.160156 C 71.0625 127.503906 70.855469 128.265625 71.199219 128.859375 L 74.683594 134.886719 C 74.914062 135.285156 75.332031 135.507812 75.761719 135.507812 C 75.972656 135.507812 76.1875 135.453125 76.382812 135.34375 C 76.976562 135 77.179688 134.238281 76.835938 133.644531 Z M 177.84375 308.441406 C 177.5 307.847656 176.738281 307.644531 176.144531 307.988281 C 175.546875 308.332031 175.34375 309.089844 175.6875 309.683594 L 179.171875 315.710938 C 179.402344 316.113281 179.820312 316.332031 180.25 316.332031 C 180.460938 316.332031 180.675781 316.28125 180.871094 316.167969 C 181.464844 315.824219 181.667969 315.066406 181.324219 314.46875 Z M 128.460938 222.980469 L 125.597656 218.03125 C 125.257812 217.433594 124.496094 217.230469 123.898438 217.574219 C 123.304688 217.917969 123.101562 218.679688 123.445312 219.273438 L 125.683594 223.148438 L 124.195312 224.007812 C 123.601562 224.351562 123.394531 225.109375 123.738281 225.707031 C 123.96875 226.105469 124.386719 226.328125 124.820312 226.328125 C 125.027344 226.328125 125.242188 226.273438 125.4375 226.160156 L 126.925781 225.300781 C 127.160156 225.699219 127.578125 225.921875 128.007812 225.921875 C 128.214844 225.921875 128.429688 225.867188 128.625 225.753906 C 129.222656 225.414062 129.425781 224.652344 129.082031 224.058594 Z M 102.960938 178.851562 C 103.304688 179.445312 103.097656 180.207031 102.503906 180.546875 C 102.308594 180.660156 102.09375 180.714844 101.882812 180.714844 C 101.453125 180.714844 101.035156 180.492188 100.804688 180.09375 L 97.324219 174.066406 C 96.980469 173.472656 97.183594 172.710938 97.777344 172.367188 C 98.371094 172.023438 99.132812 172.226562 99.476562 172.824219 L 102.960938 178.851562 " fill-opacity="1" fill-rule="nonzero"/><path fill="#aa3dba" d="M 63.621094 116.269531 L 126.511719 152.550781 L 128.253906 149.535156 L 65.363281 113.257812 L 63.621094 116.269531 " fill-opacity="1" fill-rule="nonzero"/><path fill="#aa3dba" d="M 315.1875 113.257812 L 252.296875 149.535156 L 254.039062 152.550781 L 316.929688 116.269531 L 315.1875 113.257812 " fill-opacity="1" fill-rule="nonzero"/><path fill="#aa3dba" d="M 188.535156 332.445312 L 192.015625 332.445312 L 192.015625 259.882812 L 188.535156 259.882812 L 188.535156 332.445312 " fill-opacity="1" fill-rule="nonzero"/><path fill="#aa3dba" d="M 193.292969 258.144531 L 253.167969 154.523438 L 313.042969 258.144531 Z M 127.382812 154.523438 L 187.257812 258.144531 L 67.507812 258.144531 Z M 250.148438 152.78125 L 190.277344 256.40625 L 130.398438 152.78125 Z M 190.277344 45.683594 L 250.148438 149.304688 L 130.398438 149.304688 Z M 191.785156 41.332031 L 188.765625 41.332031 L 62.984375 259.015625 L 64.492188 261.625 L 316.058594 261.625 L 317.566406 259.015625 L 191.785156 41.332031 " fill-opacity="1" fill-rule="nonzero"/><path fill="#aa3dba" d="M 313.820312 258.59375 L 190.277344 329.859375 L 66.730469 258.59375 L 66.730469 116.054688 L 190.277344 44.785156 L 313.820312 116.054688 Z M 190.277344 39.617188 L 62.253906 113.472656 L 62.253906 261.175781 L 190.277344 335.027344 L 317.179688 261.820312 L 318.296875 261.175781 L 318.296875 113.472656 L 190.277344 39.617188 " fill-opacity="1" fill-rule="nonzero"/><g clip-path="url(#id1)"><path fill="#aa3dba" d="M 190.277344 5.960938 C 170.273438 5.960938 154.003906 22.21875 154.003906 42.203125 C 154.003906 62.1875 170.273438 78.441406 190.277344 78.441406 C 210.273438 78.441406 226.546875 62.1875 226.546875 42.203125 C 226.546875 22.21875 210.273438 5.960938 190.277344 5.960938 Z M 190.277344 81.921875 C 168.355469 81.921875 150.519531 64.105469 150.519531 42.203125 C 150.519531 20.300781 168.355469 2.480469 190.277344 2.480469 C 212.195312 2.480469 230.03125 20.300781 230.03125 42.203125 C 230.03125 64.105469 212.195312 81.921875 190.277344 81.921875 " fill-opacity="1" fill-rule="nonzero"/></g><g clip-path="url(#id2)"><path fill="#aa3dba" d="M 316.023438 78.515625 C 309.695312 78.515625 303.4375 80.195312 297.921875 83.378906 C 280.601562 93.367188 274.648438 115.578125 284.648438 132.882812 C 291.109375 144.0625 303.15625 151.011719 316.09375 151.011719 C 322.421875 151.011719 328.679688 149.328125 334.195312 146.148438 C 342.585938 141.308594 348.585938 133.492188 351.09375 124.144531 C 353.601562 114.792969 352.316406 105.027344 347.46875 96.644531 C 341.011719 85.460938 328.960938 78.515625 316.023438 78.515625 Z M 316.09375 154.488281 C 301.917969 154.488281 288.710938 146.878906 281.628906 134.625 C 270.671875 115.65625 277.199219 91.3125 296.183594 80.363281 C 302.226562 76.878906 309.085938 75.035156 316.023438 75.035156 C 330.199219 75.035156 343.40625 82.648438 350.488281 94.902344 C 355.796875 104.089844 357.207031 114.792969 354.460938 125.042969 C 351.710938 135.292969 345.132812 143.859375 335.9375 149.160156 C 329.894531 152.648438 323.03125 154.488281 316.09375 154.488281 " fill-opacity="1" fill-rule="nonzero"/></g><g clip-path="url(#id3)"><path fill="#aa3dba" d="M 316.09375 223.636719 C 303.15625 223.636719 291.109375 230.582031 284.648438 241.761719 C 274.648438 259.070312 280.601562 281.277344 297.921875 291.269531 C 303.4375 294.449219 309.695312 296.132812 316.023438 296.132812 C 328.960938 296.132812 341.011719 289.183594 347.46875 278.003906 C 352.316406 269.621094 353.601562 259.851562 351.09375 250.503906 C 348.585938 241.152344 342.585938 233.335938 334.195312 228.5 C 328.679688 225.316406 322.421875 223.636719 316.09375 223.636719 Z M 316.023438 299.609375 C 309.085938 299.609375 302.226562 297.769531 296.183594 294.28125 C 277.199219 283.332031 270.671875 258.992188 281.628906 240.023438 C 288.710938 227.769531 301.917969 220.15625 316.09375 220.15625 C 323.03125 220.15625 329.894531 222 335.9375 225.484375 C 345.132812 230.789062 351.710938 239.355469 354.460938 249.605469 C 357.207031 259.851562 355.796875 270.554688 350.488281 279.742188 C 343.40625 291.996094 330.199219 299.609375 316.023438 299.609375 " fill-opacity="1" fill-rule="nonzero"/></g><g clip-path="url(#id4)"><path fill="#aa3dba" d="M 190.277344 296.203125 C 170.273438 296.203125 154.003906 312.460938 154.003906 332.445312 C 154.003906 352.425781 170.273438 368.683594 190.277344 368.683594 C 210.273438 368.683594 226.546875 352.425781 226.546875 332.445312 C 226.546875 312.460938 210.273438 296.203125 190.277344 296.203125 Z M 190.277344 372.164062 C 168.355469 372.164062 150.519531 354.34375 150.519531 332.445312 C 150.519531 310.539062 168.355469 292.722656 190.277344 292.722656 C 212.195312 292.722656 230.03125 310.539062 230.03125 332.445312 C 230.03125 354.34375 212.195312 372.164062 190.277344 372.164062 " fill-opacity="1" fill-rule="nonzero"/></g><path fill="#aa3dba" d="M 64.453125 223.636719 C 58.128906 223.636719 51.871094 225.316406 46.355469 228.5 C 29.035156 238.488281 23.078125 260.699219 33.078125 278.003906 C 39.539062 289.183594 51.589844 296.132812 64.527344 296.132812 C 70.855469 296.132812 77.113281 294.449219 82.628906 291.269531 C 99.945312 281.277344 105.902344 259.070312 95.902344 241.761719 C 89.441406 230.582031 77.390625 223.636719 64.453125 223.636719 Z M 64.527344 299.609375 C 50.351562 299.609375 37.144531 291.996094 30.0625 279.742188 C 19.101562 260.777344 25.632812 236.433594 44.613281 225.484375 C 50.65625 222 57.519531 220.15625 64.453125 220.15625 C 78.632812 220.15625 91.835938 227.769531 98.917969 240.023438 C 109.878906 258.992188 103.351562 283.332031 84.367188 294.28125 C 78.324219 297.769531 71.464844 299.609375 64.527344 299.609375 " fill-opacity="1" fill-rule="nonzero"/><path fill="#aa3dba" d="M 64.527344 78.515625 C 51.589844 78.515625 39.539062 85.460938 33.078125 96.644531 C 28.234375 105.027344 26.949219 114.792969 29.457031 124.144531 C 31.964844 133.492188 37.964844 141.308594 46.355469 146.148438 C 51.867188 149.328125 58.128906 151.011719 64.453125 151.011719 C 77.390625 151.011719 89.441406 144.0625 95.902344 132.882812 C 100.746094 124.5 102.035156 114.734375 99.527344 105.382812 C 97.019531 96.03125 91.015625 88.214844 82.628906 83.378906 C 77.113281 80.195312 70.855469 78.515625 64.527344 78.515625 Z M 64.453125 154.488281 C 57.515625 154.488281 50.65625 152.648438 44.613281 149.160156 C 35.417969 143.859375 28.839844 135.292969 26.089844 125.042969 C 23.34375 114.792969 24.753906 104.089844 30.0625 94.902344 C 37.144531 82.648438 50.351562 75.035156 64.527344 75.035156 C 71.464844 75.035156 78.324219 76.878906 84.367188 80.363281 C 93.5625 85.667969 100.144531 94.234375 102.890625 104.484375 C 105.640625 114.730469 104.226562 125.433594 98.917969 134.625 C 91.835938 146.878906 78.632812 154.488281 64.453125 154.488281 " fill-opacity="1" fill-rule="nonzero"/><path fill="#aa3dba" d="M 190.277344 52.554688 C 184.550781 52.554688 179.914062 47.917969 179.914062 42.203125 C 179.914062 36.484375 184.550781 31.847656 190.277344 31.847656 C 195.996094 31.847656 200.636719 36.484375 200.636719 42.203125 C 200.636719 47.917969 195.996094 52.554688 190.277344 52.554688 " fill-opacity="1" fill-rule="nonzero"/><path fill="#aa3dba" d="M 307.085938 119.9375 C 304.226562 114.988281 305.921875 108.65625 310.878906 105.796875 C 315.835938 102.9375 322.171875 104.632812 325.03125 109.585938 C 327.894531 114.539062 326.195312 120.867188 321.238281 123.730469 C 316.28125 126.589844 309.945312 124.890625 307.085938 119.9375 " fill-opacity="1" fill-rule="nonzero"/><path fill="#aa3dba" d="M 307.085938 254.707031 C 309.945312 249.753906 316.28125 248.058594 321.238281 250.917969 C 326.195312 253.777344 327.894531 260.109375 325.03125 265.058594 C 322.171875 270.011719 315.835938 271.710938 310.878906 268.847656 C 305.921875 265.988281 304.226562 259.660156 307.085938 254.707031 " fill-opacity="1" fill-rule="nonzero"/><path fill="#aa3dba" d="M 190.277344 322.089844 C 195.996094 322.089844 200.636719 326.726562 200.636719 332.445312 C 200.636719 338.160156 195.996094 342.796875 190.277344 342.796875 C 184.550781 342.796875 179.914062 338.160156 179.914062 332.445312 C 179.914062 326.726562 184.550781 322.089844 190.277344 322.089844 " fill-opacity="1" fill-rule="nonzero"/><path fill="#aa3dba" d="M 73.464844 254.707031 C 76.324219 259.660156 74.628906 265.988281 69.671875 268.847656 C 64.714844 271.710938 58.378906 270.011719 55.519531 265.058594 C 52.65625 260.109375 54.355469 253.777344 59.308594 250.917969 C 64.265625 248.058594 70.605469 249.753906 73.464844 254.707031 " fill-opacity="1" fill-rule="nonzero"/><path fill="#aa3dba" d="M 73.464844 119.9375 C 70.605469 124.890625 64.265625 126.589844 59.308594 123.730469 C 54.355469 120.867188 52.65625 114.539062 55.519531 109.585938 C 58.378906 104.632812 64.714844 102.9375 69.671875 105.796875 C 74.628906 108.65625 76.324219 114.988281 73.464844 119.9375 " fill-opacity="1" fill-rule="nonzero"/><path fill="#aa3dba" d="M 159.636719 29.679688 C 159.636719 32.578125 157.285156 34.929688 154.382812 34.929688 C 151.476562 34.929688 149.125 32.578125 149.125 29.679688 C 149.125 26.777344 151.476562 24.425781 154.382812 24.425781 C 157.285156 24.425781 159.636719 26.777344 159.636719 29.679688 " fill-opacity="1" fill-rule="nonzero"/><path fill="#aa3dba" d="M 38.316406 135.011719 C 40.832031 136.460938 41.691406 139.675781 40.242188 142.1875 C 38.789062 144.699219 35.574219 145.558594 33.058594 144.109375 C 30.542969 142.660156 29.683594 139.445312 31.136719 136.933594 C 32.585938 134.421875 35.800781 133.558594 38.316406 135.011719 " fill-opacity="1" fill-rule="nonzero"/><path fill="#aa3dba" d="M 68.953125 292.65625 C 71.46875 291.207031 74.683594 292.066406 76.136719 294.578125 C 77.585938 297.089844 76.726562 300.300781 74.210938 301.753906 C 71.695312 303.207031 68.480469 302.34375 67.03125 299.832031 C 65.578125 297.320312 66.4375 294.105469 68.953125 292.65625 " fill-opacity="1" fill-rule="nonzero"/><path fill="#aa3dba" d="M 220.914062 344.96875 C 220.914062 342.066406 223.265625 339.714844 226.167969 339.714844 C 229.074219 339.714844 231.425781 342.066406 231.425781 344.96875 C 231.425781 347.867188 229.074219 350.222656 226.167969 350.222656 C 223.265625 350.222656 220.914062 347.867188 220.914062 344.96875 " fill-opacity="1" fill-rule="nonzero"/><path fill="#aa3dba" d="M 342.234375 239.636719 C 339.71875 238.183594 338.859375 234.972656 340.308594 232.460938 C 341.757812 229.945312 344.976562 229.085938 347.488281 230.539062 C 350.007812 231.984375 350.867188 235.199219 349.414062 237.714844 C 347.964844 240.222656 344.746094 241.085938 342.234375 239.636719 " fill-opacity="1" fill-rule="nonzero"/><path fill="#aa3dba" d="M 311.59375 81.992188 C 309.082031 83.441406 305.867188 82.578125 304.414062 80.066406 C 302.964844 77.554688 303.824219 74.339844 306.335938 72.894531 C 308.851562 71.441406 312.070312 72.300781 313.519531 74.816406 C 314.972656 77.328125 314.109375 80.539062 311.59375 81.992188 " fill-opacity="1" fill-rule="nonzero"/></svg>